<svg xmlns="http://www.w3.org/2000/svg" width="24" height="25" fill="none" viewBox="0 0 24 25">
  <mask id="a" width="24" height="25" x="0" y="0" maskUnits="userSpaceOnUse" style="mask-type:alpha">
    <path stroke="none" fill="#D9D9D9" d="M0 .45h24v24H0z"/>
  </mask>
  <g mask="url(#a)">
    <mask id="b" width="24" height="25" x="0" y="0" maskUnits="userSpaceOnUse" style="mask-type:alpha">
      <path stroke="none" fill="#D9D9D9" d="M0 .45h24v24H0z"/>
    </mask>
    <g mask="url(#b)">
      <path stroke="none" fill="#fff" d="m12 22.45-.25-3h-.25c-2.367 0-4.375-.825-6.025-2.475C3.825 15.325 3 13.317 3 10.95c0-2.367.825-4.375 2.475-6.025C7.125 3.275 9.133 2.45 11.5 2.45a8.28 8.28 0 0 1 3.313.663 8.585 8.585 0 0 1 4.524 4.525A8.28 8.28 0 0 1 20 10.95c0 1.25-.204 2.45-.613 3.6a12.739 12.739 0 0 1-1.675 3.2 14.164 14.164 0 0 1-2.524 2.675A15.65 15.65 0 0 1 12 22.45Zm-.525-6.025c.283 0 .525-.1.725-.3.2-.2.3-.442.3-.725s-.1-.525-.3-.725c-.2-.2-.442-.3-.725-.3s-.525.1-.725.3c-.2.2-.3.442-.3.725s.1.525.3.725c.2.2.442.3.725.3Zm-.725-3.175h1.5c0-.5.05-.85.15-1.05.1-.2.417-.567.95-1.1.3-.3.55-.625.75-.975.2-.35.3-.725.3-1.125 0-.85-.287-1.487-.863-1.912-.575-.425-1.254-.638-2.037-.638-.733 0-1.35.204-1.85.613-.5.408-.85.904-1.05 1.487l1.4.55c.083-.283.242-.562.475-.837.233-.275.575-.413 1.025-.413.45 0 .787.125 1.012.375.226.25.338.525.338.825 0 .283-.083.538-.25.763a6.205 6.205 0 0 1-.6.687c-.583.5-.938.896-1.063 1.188-.124.291-.187.812-.187 1.562Z"/>
    </g>
  </g>
</svg>
